HIERARCHY
ROOT Pelvis
{
	OFFSET 0.000000 0.000000 0.000000
	CHANNELS 6 Xposition Yposition Zposition Xrotation Yrotation Zrotation
	JOINT LeftUpLeg_virtual
	{
		OFFSET 0.000000 0.000000 0.000000
		CHANNELS 3 Xrotation Yrotation Zrotation
		JOINT LeftUpLeg
		{
			OFFSET 18.735201 -5.666702 -4.541200
			CHANNELS 3 Xrotation Yrotation Zrotation
			JOINT LeftLeg
			{
				OFFSET -0.021200 -31.938179 0.493100
				CHANNELS 3 Xrotation Yrotation Zrotation
				JOINT LeftFoot
				{
					OFFSET 0.021200 -31.938179 -4.336299
					CHANNELS 3 Xrotation Yrotation Zrotation
					JOINT LeftToeBase
					{
						OFFSET 0.943001 -26.722000 15.023500
						CHANNELS 3 Xrotation Yrotation Zrotation
						End Site
						{
							OFFSET 0 0 0
						}
					}
				}
			}
		}
	}
	JOINT RightUpLeg_virtual
	{
		OFFSET 0.000000 0.000000 0.000000
		CHANNELS 3 Xrotation Yrotation Zrotation
		JOINT RightUpLeg
		{
			OFFSET -18.735201 -5.666702 -4.541200
			CHANNELS 3 Xrotation Yrotation Zrotation
			JOINT RightLeg
			{
				OFFSET 0.018946 -31.938133 0.493100
				CHANNELS 3 Xrotation Yrotation Zrotation
				JOINT RightFoot
				{
					OFFSET -0.018946 -31.938126 -4.336299
					CHANNELS 3 Xrotation Yrotation Zrotation
					JOINT RightToeBase
					{
						OFFSET -0.943001 -26.722004 15.023500
						CHANNELS 3 Xrotation Yrotation Zrotation
						End Site
						{
							OFFSET 0 0 0
						}
					}
				}
			}
		}
	}
	JOINT Hips_virtual
	{
		OFFSET 0.000000 0.000000 0.000000
		CHANNELS 3 Xrotation Yrotation Zrotation
		JOINT Hips
		{
			OFFSET -0.000000 -0.000000 -0.000000
			CHANNELS 3 Xrotation Yrotation Zrotation
			JOINT Spine
			{
				OFFSET 0.000000 10.199997 -0.299500
				CHANNELS 3 Xrotation Yrotation Zrotation
				JOINT Spine1
				{
					OFFSET 0.000000 11.900002 -1.516600
					CHANNELS 3 Xrotation Yrotation Zrotation
					JOINT Spine2
					{
						OFFSET 0.000000 13.600006 -2.842500
						CHANNELS 3 Xrotation Yrotation Zrotation
						JOINT Neck_virtual
						{
							OFFSET 0.000000 0.000000 0.000000
							CHANNELS 3 Xrotation Yrotation Zrotation
							JOINT Neck
							{
								OFFSET 0.000000 9.624100 -2.890100
								CHANNELS 3 Xrotation Yrotation Zrotation
								JOINT Head
								{
									OFFSET 0.000000 14.068802 -1.351900
									CHANNELS 3 Xrotation Yrotation Zrotation
									End Site
									{
										OFFSET 0 0 0
									}
								}
							}
						}
						JOINT LeftShoulder_virtual
						{
							OFFSET 0.000000 0.000000 0.000000
							CHANNELS 3 Xrotation Yrotation Zrotation
							JOINT LeftShoulder
							{
								OFFSET 15.263000 10.923401 -0.547700
								CHANNELS 3 Xrotation Yrotation Zrotation
								JOINT LeftArm
								{
									OFFSET 25.438599 -2.830597 -13.032500
									CHANNELS 3 Xrotation Yrotation Zrotation
									JOINT LeftForeArm
									{
										OFFSET 29.960503 0.000000 0.000000
										CHANNELS 3 Xrotation Yrotation Zrotation
										JOINT LeftHand
										{
											OFFSET 27.849251 0.000000 0.000000
											CHANNELS 3 Xrotation Yrotation Zrotation
											End Site
											{
												OFFSET 0 0 0
											}
										}
									}
								}
							}
						}
						JOINT RightShoulder_virtual
						{
							OFFSET 0.000000 0.000000 0.000000
							CHANNELS 3 Xrotation Yrotation Zrotation
							JOINT RightShoulder
							{
								OFFSET -15.263000 10.923401 -0.547700
								CHANNELS 3 Xrotation Yrotation Zrotation
								JOINT RightArm
								{
									OFFSET -25.438599 -2.830597 -13.032500
									CHANNELS 3 Xrotation Yrotation Zrotation
									JOINT RightForeArm
									{
										OFFSET -29.960503 0.000000 0.000000
										CHANNELS 3 Xrotation Yrotation Zrotation
										JOINT RightHand
										{
											OFFSET -27.849251 0.000000 0.000000
											CHANNELS 3 Xrotation Yrotation Zrotation
											End Site
											{
												OFFSET 0 0 0
											}
										}
									}
								}
							}
						}
					}
				}
			}
		}
	}
}
MOTION
Frames: 8
Frame Time: 0.03333333
1.041753 93.945221 1.836496 0.000000 0.000000 0.000000 10.456407 -9.588407 -2.346468 -26.676747 10.096480 12.629479 32.006581 5.613091 -1.143174 -15.164710 6.301439 -3.438715 0.000000 0.000000 0.000000 6.534182 -3.692737 2.577380 -20.912801 -6.566401 -12.097608 29.248704 -5.462195 -0.466848 -18.338713 -9.359400 6.910756 0.000000 0.000000 0.000000 -0.790947 -1.832386 0.321521 -3.684717 2.945845 -0.893596 5.617961 1.441443 -0.829356 1.642720 0.894867 -0.685255 0.000000 0.000000 0.000000 2.792790 0.415119 -0.213124 -0.639336 -0.091776 -0.103077 0.000000 0.000000 0.000000 2.787968 0.826732 -1.118777 1.155377 -5.340623 -9.891204 -2.761465 -0.409556 -53.558860 0.460926 -33.201912 -4.924330 0.000000 0.000000 0.000000 2.819117 -0.463198 1.145759 1.019611 3.932592 10.762007 2.436930 0.805802 50.587274 2.822093 34.473543 3.787387 0.000000 0.000000 0.000000 
-0.083658 93.782394 1.657515 0.000000 0.000000 0.000000 10.974546 -11.493176 -2.053106 -25.981845 9.688040 12.588152 30.867469 6.171738 -1.204318 -16.202488 6.898971 -3.295921 0.000000 0.000000 0.000000 6.434020 -4.265395 3.070119 -21.169772 -6.834718 -11.645080 28.792082 -6.109566 -0.496916 -18.967739 -9.985358 6.428447 0.000000 0.000000 0.000000 -2.106875 -2.318598 -0.350608 -2.420708 3.641097 -0.563078 5.083116 1.187611 -1.068620 1.379595 1.024732 -0.463886 0.000000 0.000000 0.000000 2.851265 0.520844 -0.393100 -0.590475 -0.000687 -0.112067 0.000000 0.000000 0.000000 2.331512 0.698330 -1.255975 1.692600 -5.415338 -10.869605 -2.302246 1.412764 -54.802658 0.955345 -31.680955 -5.002537 0.000000 0.000000 0.000000 2.575506 -0.149885 1.050849 1.189639 4.830209 11.400629 2.321824 0.909614 50.442149 2.301788 35.790280 3.985950 0.000000 0.000000 0.000000 
-0.036723 93.943474 2.236553 0.000000 0.000000 0.000000 11.493485 -11.390426 -2.357545 -24.996448 9.898507 12.065171 29.652467 6.433109 -1.266786 -17.136489 7.242703 -3.330965 0.000000 0.000000 0.000000 6.078052 -4.171060 2.734184 -21.605406 -6.654783 -12.000039 28.500224 -6.433603 -0.352310 -19.120264 -10.391620 6.415557 0.000000 0.000000 0.000000 -0.796678 -1.827754 0.407684 -3.442092 4.710767 -1.020261 5.828612 1.020215 -1.635510 0.805737 0.950375 -0.259844 0.000000 0.000000 0.000000 2.956505 0.507139 -0.310245 -0.659478 -0.053777 -0.115757 0.000000 0.000000 0.000000 2.250524 1.115271 -1.086200 1.794274 -5.954549 -11.007456 -1.933169 3.060868 -54.226627 1.351834 -28.463995 -4.464094 0.000000 0.000000 0.000000 2.567580 -0.056663 1.006540 1.662058 4.352218 11.629901 1.538124 1.331357 51.515223 1.648884 34.501444 4.157347 0.000000 0.000000 0.000000 
-0.526008 94.392670 1.415367 0.000000 0.000000 0.000000 11.473907 -11.747453 -1.836317 -25.069484 9.647194 12.615041 30.522766 6.218081 -1.566581 -16.488510 7.149767 -3.924370 0.000000 0.000000 0.000000 6.548624 -2.834448 3.303783 -20.798500 -6.492736 -11.178528 29.885578 -6.837784 -0.238042 -17.968228 -10.780096 6.294005 0.000000 0.000000 0.000000 -1.456771 -0.486853 -0.215885 -1.060936 5.596024 -1.909293 5.021789 0.707235 -1.214819 1.035339 1.244460 -0.616615 0.000000 0.000000 0.000000 2.947871 0.490446 -0.209684 -0.644326 -0.057237 -0.073765 0.000000 0.000000 0.000000 2.584482 0.897441 -1.284009 1.697754 -5.593439 -10.975604 -1.925673 3.222526 -54.772370 1.020542 -28.527016 -4.675314 0.000000 0.000000 0.000000 2.698327 0.057341 0.964920 1.493095 4.209477 12.845876 0.916427 1.090906 51.980349 1.555424 36.254146 4.410825 0.000000 0.000000 0.000000 
0.094685 93.910492 0.996717 0.000000 0.000000 0.000000 11.215433 -13.450364 -1.751537 -25.335540 9.156044 12.467849 30.219810 6.512593 -1.495750 -16.741470 7.408229 -3.668749 0.000000 0.000000 0.000000 6.694086 -1.455427 3.159745 -20.559011 -6.134286 -11.175328 29.094827 -6.494872 -0.031443 -18.733199 -10.567951 6.862217 0.000000 0.000000 0.000000 0.190470 0.246499 -0.380627 -2.015434 4.547004 -2.262505 5.836887 1.262398 -1.748375 0.618274 1.327483 -0.418726 0.000000 0.000000 0.000000 2.737609 0.580151 -0.162928 -0.976541 0.052181 -0.049246 0.000000 0.000000 0.000000 2.158536 0.884439 -1.246308 1.376223 -5.105420 -11.573061 -2.144413 4.151176 -53.859354 0.617627 -27.735887 -4.657436 0.000000 0.000000 0.000000 2.414659 0.149143 1.140507 1.589347 4.969352 12.900481 0.136777 0.776593 52.175562 0.901469 38.105827 4.825135 0.000000 0.000000 0.000000 
0.108776 94.204979 1.340113 0.000000 0.000000 0.000000 10.928715 -12.547859 -2.027827 -25.667485 9.382824 12.359575 31.389610 6.381895 -1.610457 -15.687826 7.323701 -3.894320 0.000000 0.000000 0.000000 6.982011 -0.707686 3.116794 -20.236309 -5.964832 -11.175616 28.709198 -6.542767 -0.000189 -19.119091 -10.638761 6.882131 0.000000 0.000000 0.000000 -2.115712 -1.953715 0.292680 -3.259358 8.023737 -0.051980 4.561153 0.780880 -1.987412 0.923894 1.569954 -0.572155 0.000000 0.000000 0.000000 2.829403 0.520377 -0.244731 -0.578104 -0.118796 -0.128553 0.000000 0.000000 0.000000 1.845057 0.981611 -1.286876 1.522142 -5.151009 -11.127307 -2.373722 4.884609 -54.423139 0.868019 -28.377665 -4.666962 0.000000 0.000000 0.000000 2.540825 0.172779 1.067015 1.790144 4.376008 12.833940 -1.815718 1.652424 53.301881 1.124937 37.073106 4.985673 0.000000 0.000000 0.000000 
0.242746 94.189087 1.754726 0.000000 0.000000 0.000000 11.285453 -11.990134 -1.890292 -25.132067 9.525825 12.510890 32.049795 6.546690 -1.728121 -15.088742 7.547104 -3.978466 0.000000 0.000000 0.000000 6.373970 -1.539629 3.090308 -21.111198 -6.061556 -11.270582 28.242216 -6.690625 -0.142359 -19.405022 -10.738470 6.520999 0.000000 0.000000 0.000000 -1.329199 -1.051795 0.486359 -3.208172 7.676310 0.539972 4.403286 1.273856 -1.963593 1.236483 1.016779 -0.585149 0.000000 0.000000 0.000000 3.360425 0.425468 -0.277731 -0.534262 -0.208076 -0.208034 0.000000 0.000000 0.000000 2.055035 0.902694 -1.272131 1.611240 -6.503492 -11.050391 -0.714225 5.025008 -54.565374 0.879781 -28.322969 -5.057175 0.000000 0.000000 0.000000 2.462843 0.153944 0.969708 1.843517 3.110070 12.870727 -2.882615 0.277427 53.746328 0.122552 36.223017 5.581804 0.000000 0.000000 0.000000 
0.548061 94.216965 0.986122 0.000000 0.000000 0.000000 10.760770 -10.930229 -2.097149 -26.058550 9.734183 12.630822 32.023147 6.410766 -1.807009 -15.272800 7.454112 -4.208225 0.000000 0.000000 0.000000 5.945757 -1.010252 3.253898 -21.776696 -5.924714 -11.074433 27.681090 -6.558737 -0.002304 -19.837658 -10.678544 6.810320 0.000000 0.000000 0.000000 -0.958135 -2.470493 0.373862 -2.016893 9.007735 0.675705 4.606518 1.625748 -1.572843 0.531827 1.289715 -0.693524 0.000000 0.000000 0.000000 3.333425 0.679939 -0.215991 -0.594206 -0.194166 -0.056178 0.000000 0.000000 0.000000 2.092663 0.788923 -1.210387 1.577868 -6.316080 -10.607078 -0.483786 7.423754 -54.905866 0.183881 -27.878954 -4.992190 0.000000 0.000000 0.000000 2.669168 0.300181 0.812919 1.485600 2.961230 13.349312 -3.206610 0.382557 53.736841 -0.067791 37.859602 5.765903 0.000000 0.000000 0.000000 
